<svg xmlns="http://www.w3.org/2000/svg" width="32" height="32" viewBox="0 0 32 32"><g transform="translate(-895 139)"><rect width="32" height="32" transform="translate(895 -139)" fill="none"/><path d="M923.355-123A4.107,4.107,0,0,1,926-126.834a15.4,15.4,0,0,0-1.681-4.066,4.1,4.1,0,0,1-5.419-2.063,4.1,4.1,0,0,1,0-3.356A15.473,15.473,0,0,0,914.834-138a4.1,4.1,0,0,1-5.288,2.379A4.1,4.1,0,0,1,907.167-138a15.413,15.413,0,0,0-4.067,1.681,4.1,4.1,0,0,1-2.065,5.418,4.1,4.1,0,0,1-3.351,0A15.267,15.267,0,0,0,896-126.834a4.1,4.1,0,0,1,2.379,5.288A4.1,4.1,0,0,1,896-119.167a15.411,15.411,0,0,0,1.681,4.067,4.1,4.1,0,0,1,5.419,2.063,4.1,4.1,0,0,1,0,3.356A15.473,15.473,0,0,0,907.166-108a4.1,4.1,0,0,1,5.288-2.379A4.1,4.1,0,0,1,914.833-108a15.412,15.412,0,0,0,4.067-1.681,4.1,4.1,0,0,1,2.065-5.418,4.1,4.1,0,0,1,3.351,0A15.267,15.267,0,0,0,926-119.166,4.107,4.107,0,0,1,923.355-123Z" fill="#5980ff"/><path d="M911-117a6.007,6.007,0,0,1-6-6,6.007,6.007,0,0,1,6-6,6.007,6.007,0,0,1,6,6A6.006,6.006,0,0,1,911-117Zm0-9a3,3,0,0,0-3,3,3,3,0,0,0,3,3,3,3,0,0,0,3-3A3,3,0,0,0,911-126Z" fill="#fff"/></g></svg>